@startuml busomprot
!include themes/puml-theme-cerulean-outline.puml
skinparam backgroundColor #FFFFFF
namespace cat.udl.cig.sms.busom {
interface MeterBusomServiceInt {
    + void start()
    + void sendMessage(List<BigInteger> messages)
}
class MeterBusomService implements MeterBusomServiceInt {
    - MeterBusomContextInt context
    - void meterSetUp()
}
MeterBusomService -- MeterBusomContextInt
MeterBusomState "1" *-- "1" MeterBusomContext
interface MeterBusomContextInt {
    + void generatePrivateKey()
    + void setUpNeighborHood()
    + void sendChunk(BigInteger message)
    + void sendPartialDecryption()
}
class MeterBusomContext implements MeterBusomContextInt {
    - MeterBusomState state;
}
interface MeterBusomState {
    BusomState next()
}
class BusomSetUp implements MeterBusomState {
}
class NeighborhoodSetUp implements MeterBusomState {
}
class SendChunk implements MeterBusomState {

}
class SendPartialDecryption implements MeterBusomState {

}

}
@enduml